<?xml version="1.0" encoding="UTF-8"?>
<svg width="308px" height="348px" viewBox="0 0 308 348" version="1.1" xmlns="http://www.w3.org/2000/svg" xmlns:xlink="http://www.w3.org/1999/xlink">
    <!-- Generator: Sketch 51.3 (57544) - http://www.bohemiancoding.com/sketch -->
    <title>card</title>
    <desc>Created with Sketch.</desc>
    <defs>
        <radialGradient cx="50%" cy="50%" fx="50%" fy="50%" r="205.052083%" gradientTransform="translate(0.500000,0.500000),scale(0.272727,1.000000),scale(1.000000,0.213216),translate(-0.500000,-0.500000)" id="radialGradient-1">
            <stop stop-color="#4CB21B" offset="0%"></stop>
            <stop stop-color="#B1E996" offset="100%"></stop>
        </radialGradient>
        <linearGradient x1="50%" y1="0%" x2="50%" y2="100%" id="linearGradient-2">
            <stop stop-color="#339006" offset="0%"></stop>
            <stop stop-color="#6AC23F" offset="100%"></stop>
        </linearGradient>
        <radialGradient cx="50%" cy="50%" fx="50%" fy="50%" r="182.8125%" gradientTransform="translate(0.500000,0.500000),scale(0.273504,1.000000),rotate(180.000000),scale(1.000000,0.373172),translate(-0.500000,-0.500000)" id="radialGradient-3">
            <stop stop-color="#F9DBF2" offset="0%"></stop>
            <stop stop-color="#E9B5DD" offset="100%"></stop>
        </radialGradient>
    </defs>
    <g id="card" stroke="none" stroke-width="1" fill="none" fill-rule="evenodd">
        <rect id="Rectangle" fill="#FFFCC6" fill-rule="nonzero" x="0" y="0" width="308" height="348"></rect>
        <g id="Group" transform="translate(19.000000, 39.000000)" fill-rule="nonzero">
            <ellipse id="plate-base" fill="url(#radialGradient-1)" cx="135.5" cy="259.5" rx="82.5" ry="22.5"></ellipse>
            <path d="M101,222.146083 L101,222 L169,222 L169,222.146083 C168.508205,222.049627 168.007636,222 167.5,222 C160.596441,222 155,231.178163 155,242.5 C155,253.821837 160.596441,263 167.5,263 C168.007636,263 168.508205,262.950373 169,262.853917 L169,263 L101,263 L101,262.853917 C107.19634,261.638622 112,252.989314 112,242.5 C112,232.010686 107.19634,223.361378 101,222.146083 Z" id="Combined-Shape" fill="url(#linearGradient-2)"></path>
            <ellipse id="plate" fill="#B1E996" cx="135.5" cy="195" rx="135.5" ry="37"></ellipse>
            <ellipse id="cake-bottom" fill="#E9B5DD" cx="135" cy="190" rx="117" ry="32"></ellipse>
            <rect id="cake-side" fill="#E9B5DD" x="18" y="82" width="234" height="108"></rect>
            <g id="six" transform="translate(103.000000, 126.000000)" fill="#B65BA2">
                <path d="M29,73 C13.536027,73 1,64.4934102 1,54 C1,43.5065898 13.536027,35 29,35 C44.463973,35 57,43.5065898 57,54 C57,64.4934102 44.463973,73 29,73 Z M25,63 C34.3888407,63 42,57.8512746 42,51.5 C42,45.1487254 34.3888407,40 25,40 C15.6111593,40 8,45.1487254 8,51.5 C8,57.8512746 15.6111593,63 25,63 Z" id="bottom-six"></path>
                <path d="M0.880371094,55.9604492 C0.870463375,46.0164229 1.21828239,39.5108891 1.92382812,36.4438477 C4.05669142,27.1721879 8.46543068,21.204928 9.97314453,18.4130859 C15.6193274,7.95801812 25.0614577,3.01710893 25.8554688,1.81201172 C28.0650681,-1.54157134 37.3364258,1.81201172 32,5.81494141 C27.5414119,9.15939244 19.3719248,15.2451574 14.8061523,23.0019531 C12.1410245,27.5297416 12.0271249,28.2054772 9.97314453,33.0371094 C8.52490234,36.4438477 9.67692622,39.7061581 8.52490234,42.5546875 C7.53193616,45.009926 4.98375907,49.4785132 0.880371094,55.9604492 Z" id="top-six"></path>
            </g>
            <ellipse id="cake-top" fill="url(#radialGradient-3)" cx="135" cy="82" rx="117" ry="32"></ellipse>
            <g id="candle" transform="translate(53.000000, 15.000000)">
                <path d="M0,9 C1.75086806,9 3.08420139,9 4,9 C4.91579861,9 6.24913194,9 8,9 L8,67 L0,67 L0,9 Z" id="Rectangle-3" fill="#EAFBE1"></path>
                <path d="M4,3.5 L4,0.5" id="Line" stroke="#56482E" stroke-linecap="round"></path>
                <path d="M4,3 C4.90029794,3 4.80059587,3.91185342 5.70089381,5.73556027 C5.98958408,6.32035158 6.75595281,7.40849816 8,9 L0,9 C1.25893052,7.37119227 2.03646174,6.26057434 2.33259366,5.66814621 C3.22172911,3.88938207 3.11086455,3 4,3 Z" id="Triangle" fill="#FDFFFC"></path>
            </g>
            <g id="candle" transform="translate(173.000000, 0.000000)">
                <path d="M0,9 C1.75086806,9 3.08420139,9 4,9 C4.91579861,9 6.24913194,9 8,9 L8,67 L0,67 L0,9 Z" id="Rectangle-3" fill="#EAFBE1"></path>
                <path d="M4,3.5 L4,0.5" id="Line" stroke="#56482E" stroke-linecap="round"></path>
                <path d="M4,3 C4.90029794,3 4.80059587,3.91185342 5.70089381,5.73556027 C5.98958408,6.32035158 6.75595281,7.40849816 8,9 L0,9 C1.25893052,7.37119227 2.03646174,6.26057434 2.33259366,5.66814621 C3.22172911,3.88938207 3.11086455,3 4,3 Z" id="Triangle" fill="#FDFFFC"></path>
            </g>
            <g id="candle" transform="translate(155.000000, 33.000000)">
                <path d="M0,9 C1.75086806,9 3.08420139,9 4,9 C4.91579861,9 6.24913194,9 8,9 L8,67 L0,67 L0,9 Z" id="Rectangle-3" fill="#EAFBE1"></path>
                <path d="M4,3.5 L4,0.5" id="Line" stroke="#56482E" stroke-linecap="round"></path>
                <path d="M4,3 C4.90029794,3 4.80059587,3.91185342 5.70089381,5.73556027 C5.98958408,6.32035158 6.75595281,7.40849816 8,9 L0,9 C1.25893052,7.37119227 2.03646174,6.26057434 2.33259366,5.66814621 C3.22172911,3.88938207 3.11086455,3 4,3 Z" id="Triangle" fill="#FDFFFC"></path>
            </g>
            <g id="candle" transform="translate(115.000000, 0.000000)">
                <path d="M0,9 C1.75086806,9 3.08420139,9 4,9 C4.91579861,9 6.24913194,9 8,9 L8,67 L0,67 L0,9 Z" id="Rectangle-3" fill="#EAFBE1"></path>
                <path d="M4,3.5 L4,0.5" id="Line" stroke="#56482E" stroke-linecap="round"></path>
                <path d="M4,3 C4.90029794,3 4.80059587,3.91185342 5.70089381,5.73556027 C5.98958408,6.32035158 6.75595281,7.40849816 8,9 L0,9 C1.25893052,7.37119227 2.03646174,6.26057434 2.33259366,5.66814621 C3.22172911,3.88938207 3.11086455,3 4,3 Z" id="Triangle" fill="#FDFFFC"></path>
            </g>
            <g id="candle" transform="translate(93.000000, 33.000000)">
                <path d="M0,9 C1.75086806,9 3.08420139,9 4,9 C4.91579861,9 6.24913194,9 8,9 L8,67 L0,67 L0,9 Z" id="Rectangle-3" fill="#EAFBE1"></path>
                <path d="M4,3.5 L4,0.5" id="Line" stroke="#56482E" stroke-linecap="round"></path>
                <path d="M4,3 C4.90029794,3 4.80059587,3.91185342 5.70089381,5.73556027 C5.98958408,6.32035158 6.75595281,7.40849816 8,9 L0,9 C1.25893052,7.37119227 2.03646174,6.26057434 2.33259366,5.66814621 C3.22172911,3.88938207 3.11086455,3 4,3 Z" id="Triangle" fill="#FDFFFC"></path>
            </g>
            <g id="candle" transform="translate(218.000000, 17.000000)">
                <path d="M0,9 C1.75086806,9 3.08420139,9 4,9 C4.91579861,9 6.24913194,9 8,9 L8,67 L0,67 L0,9 Z" id="Rectangle-3" fill="#EAFBE1"></path>
                <path d="M4,3.5 L4,0.5" id="Line" stroke="#56482E" stroke-linecap="round"></path>
                <path d="M4,3 C4.90029794,3 4.80059587,3.91185342 5.70089381,5.73556027 C5.98958408,6.32035158 6.75595281,7.40849816 8,9 L0,9 C1.25893052,7.37119227 2.03646174,6.26057434 2.33259366,5.66814621 C3.22172911,3.88938207 3.11086455,3 4,3 Z" id="Triangle" fill="#FDFFFC"></path>
            </g>
        </g>
    </g>
</svg>